<svg xmlns="http://www.w3.org/2000/svg" width="37" height="37" viewBox="0 0 37 37">
  <defs>
    <style>
      .cls-1 {
        fill: none;
      }

      .cls-2 {
        fill: #fff;
      }
    </style>
  </defs>
  <g id="apple" transform="translate(-794 -484)">
    <rect id="사각형_3274" data-name="사각형 3274" class="cls-1" width="37" height="37" transform="translate(794 484)"/>
    <g id="그룹_6618" data-name="그룹 6618" transform="translate(803 491.001)">
      <path id="패스_2436" data-name="패스 2436" class="cls-2" d="M252.246,0a5.433,5.433,0,0,0-3.518,1.9,4.719,4.719,0,0,0-1.152,3.667,4.586,4.586,0,0,0,3.55-1.813A5.1,5.1,0,0,0,252.246,0Z" transform="translate(-238.017 -0.001)"/>
      <path id="패스_2437" data-name="패스 2437" class="cls-2" d="M56.443,122.189a5.861,5.861,0,0,0-4.424-2.349c-2.077,0-2.955.994-4.4.994-1.488,0-2.618-.991-4.414-.991a6.006,6.006,0,0,0-4.833,2.922c-1.674,2.6-1.388,7.477,1.326,11.635.971,1.488,2.268,3.161,3.964,3.175,1.509.014,1.935-.968,3.98-.978s2.433.991,3.939.975c1.7-.013,3.065-1.867,4.036-3.354a16.684,16.684,0,0,0,1.495-2.807A5.1,5.1,0,0,1,56.443,122.189Z" transform="translate(-37.336 -114.421)"/>
    </g>
  </g>
</svg>
