<svg width="32" height="32" viewBox="0 0 32 32" fill="none" xmlns="http://www.w3.org/2000/svg">
    <g clip-path="url(#clip0_4_561)">
        <path d="M16 31.4849C24.5521 31.4849 31.4849 24.5521 31.4849 16C31.4849 7.44793 24.5521 0.515099 16 0.515099C7.44793 0.515099 0.515099 7.44793 0.515099 16C0.515099 24.5521 7.44793 31.4849 16 31.4849Z" fill="white"/>
        <path d="M17.5572 7.20981C17.4214 7.18555 16.767 7.07561 16 7.07561C15.233 7.07561 14.5786 7.18503 14.4428 7.20981C14.3649 7.22374 14.335 7.14736 14.3943 7.10297C14.448 7.06323 15.9995 5.88232 15.9995 5.88232L17.6041 7.10297C17.6645 7.14736 17.6351 7.22374 17.5572 7.20981ZM14.8764 14.8774C14.8764 14.8774 14.7943 14.9068 14.7726 14.9791C15.0978 15.2289 15.3218 15.7972 16 15.7972C16.6782 15.7972 16.9022 15.2289 17.2268 14.9791C17.2057 14.9063 17.1236 14.8774 17.1236 14.8774C17.1236 14.8774 16.6988 14.9775 16 14.9775C15.3012 14.9775 14.8764 14.8774 14.8764 14.8774ZM16 13.921C15.8116 13.921 15.7703 13.8498 15.6418 13.8503C15.5195 13.8508 15.2821 13.9484 15.2304 14.0377C15.2341 14.0831 15.2506 14.1239 15.2836 14.16C15.5582 14.2013 15.6821 14.3541 16.0005 14.3541C16.319 14.3541 16.4423 14.2013 16.7174 14.16C16.7494 14.1239 16.767 14.0836 16.7706 14.0377C16.7195 13.9484 16.4815 13.8514 16.3587 13.8503C16.2297 13.8493 16.1879 13.921 16 13.921ZM31.4612 16.849C31.4415 17.2191 31.4085 17.5861 31.3631 17.9489C29.6103 18.239 28.9837 16.6772 27.1881 16.7556C27.2955 17.1365 27.3827 17.5246 27.4498 17.921C28.9306 17.92 29.5272 19.3043 31.1747 19.1004C31.088 19.5236 30.9837 19.9412 30.8635 20.3525C29.5608 20.4805 29.1019 19.1861 27.5943 19.2217C27.6067 19.4364 27.6134 19.6532 27.6134 19.872L27.6072 20.2338L30.5347 21.3507C30.3814 21.7672 30.2101 22.1745 30.0232 22.5734C29.1432 22.5249 28.8397 21.3961 27.5009 21.4859C27.4606 21.7755 27.4095 22.0614 27.3486 22.3437C28.5115 22.2622 28.7618 23.3326 29.5948 23.4194C29.3827 23.8065 29.1541 24.1832 28.911 24.5502C28.4175 24.2859 27.9897 23.4885 27.0539 23.4395C27.1499 23.1432 27.2341 22.8428 27.3053 22.5373C26.4754 22.5373 25.5262 22.2137 24.7303 21.489C24.9884 20.0201 22.7086 18.5244 22.7086 17.4488C22.7086 16.2803 23.2996 15.6336 23.2996 14.0583C23.2996 12.8893 22.7319 11.6212 21.8756 10.7546C21.7099 10.5863 21.5401 10.4501 21.345 10.3277C22.1316 11.3012 22.7355 12.4552 22.7355 13.792C22.7355 15.2754 22.0454 16.0583 22.0454 17.4276C22.0454 18.7964 24.048 19.9809 24.048 21.3925C24.048 21.9479 23.8704 22.4903 23.2852 23.5556C24.1843 24.4537 25.3554 24.9435 26.111 24.9435C26.3561 24.9435 26.4877 24.8686 26.5755 24.6761C26.6508 24.5099 26.7226 24.3417 26.7902 24.1719C27.6041 24.2034 27.9768 24.943 28.4274 25.2382C28.1801 25.5701 27.9205 25.8906 27.6485 26.2008C27.3466 25.8663 26.9409 25.3037 26.3468 25.1474C26.2405 25.3538 26.128 25.5577 26.0098 25.7574C26.5213 25.8968 26.8712 26.4129 27.1422 26.7525C26.8501 27.055 26.5461 27.345 26.2297 27.6237C26.032 27.3161 25.7244 26.9259 25.3796 26.7154C25.2521 26.8877 25.1195 27.056 24.9827 27.2196C25.2759 27.4183 25.5344 27.776 25.7032 28.0676C25.3378 28.3608 24.96 28.639 24.5688 28.8991C24.3757 27.3265 22.2292 26.2488 22.8077 24.4243C22.6178 24.7458 22.3912 25.1479 22.3912 25.632C22.3912 26.9528 23.7982 28.001 23.9102 29.3135C23.6186 29.488 23.3203 29.6521 23.0163 29.8075C22.9657 28.3649 21.4761 26.7861 21.4761 25.6021C21.4761 24.2803 23.2072 22.9528 23.2072 21.3925C23.2072 19.8312 21.2098 18.7505 21.2098 17.3796C21.2098 16.0098 22.0594 15.2217 22.0594 13.4658C22.0594 12.1796 21.4483 10.8779 20.5043 10.0465C20.337 9.89884 20.1724 9.78168 19.9747 9.67897C20.865 10.7468 21.3812 11.7156 21.3812 13.1856C21.3812 14.8366 20.4077 15.7533 20.4077 17.3698C20.4077 18.9868 22.368 19.8859 22.368 21.393C22.368 22.9001 20.5435 24.1703 20.5435 25.7187C20.5435 27.1272 22.1517 28.5332 22.1755 30.2044C21.824 30.3577 21.4658 30.4975 21.1014 30.6245C21.3058 28.9363 19.4957 27.1948 19.4957 25.8173C19.4957 24.3112 21.3884 23.0168 21.3884 21.393C21.3884 19.7683 19.4643 19.0132 19.4643 17.3455C19.4643 15.679 20.6446 14.7561 20.6446 12.9146C20.6446 11.4792 19.936 10.1884 18.9006 9.38839L18.8351 9.33884C18.7375 9.26658 18.657 9.35381 18.7262 9.43949C19.4591 10.3546 19.8508 11.28 19.8508 12.6503C19.8508 14.335 18.495 15.7037 18.495 17.3357C18.495 19.2619 20.3159 19.8126 20.3159 21.393C20.3159 22.9729 18.3634 24.2369 18.3634 25.9143C18.3634 27.4699 20.2111 29.1964 19.8942 30.992C19.5236 31.088 19.1479 31.1716 18.7664 31.2397C19.1133 29.0039 17.3006 27.3982 17.3006 25.9355C17.3006 24.352 19.3228 22.9404 19.3228 21.393C19.3228 19.9334 17.8715 19.4565 17.6805 17.9634C17.6542 17.7595 17.4906 17.6083 17.265 17.6459C16.9703 17.6996 16.5925 17.8937 15.999 17.8937C15.4054 17.8937 15.0276 17.6991 14.7324 17.6459C14.5074 17.6088 14.3437 17.76 14.3174 17.9634C14.127 19.4565 12.6746 19.9329 12.6746 21.393C12.6746 22.9404 14.6973 24.3515 14.6973 25.9355C14.6973 27.3982 12.8846 29.0039 13.231 31.2397C12.8501 31.1711 12.4738 31.0875 12.1032 30.992C11.7863 29.1964 13.6346 27.4699 13.6346 25.9143C13.6346 24.2369 11.6815 22.9729 11.6815 21.393C11.6815 19.8126 13.503 19.2619 13.503 17.3357C13.503 15.7037 12.1466 14.3355 12.1466 12.6503C12.1466 11.2805 12.5383 10.3551 13.2717 9.43949C13.3404 9.35381 13.2604 9.26658 13.1623 9.33884L13.0973 9.38839C12.063 10.1863 11.3548 11.4772 11.3548 12.9125C11.3548 14.7541 12.5352 15.6769 12.5352 17.3435C12.5352 19.0106 10.6111 19.7657 10.6111 21.391C10.6111 23.0147 12.5037 24.3092 12.5037 25.8152C12.5037 27.1933 10.6937 28.9342 10.8986 30.6225C10.5337 30.4955 10.1755 30.3551 9.824 30.2023C9.84826 28.5311 11.4555 27.1246 11.4555 25.7166C11.4555 24.1683 9.632 22.8981 9.632 21.391C9.632 19.8839 11.5912 18.9848 11.5912 17.3677C11.5912 15.7512 10.6183 14.8346 10.6183 13.1835C10.6183 11.7135 11.1339 10.7448 12.0243 9.67691C11.8261 9.77962 11.6619 9.89678 11.4952 10.0444C10.5512 10.8759 9.94064 12.1776 9.94064 13.4637C9.94064 15.2196 10.7902 16.0077 10.7902 17.3775C10.7902 18.7484 8.79277 19.8292 8.79277 21.3905C8.79277 22.9507 10.5239 24.2787 10.5239 25.6C10.5239 26.7845 9.03329 28.3634 8.98322 29.8054C8.67922 29.6501 8.3809 29.4859 8.08929 29.3115C8.20181 27.999 9.60826 26.9507 9.60826 25.6299C9.60826 25.1458 9.38219 24.7437 9.19174 24.4222C9.77032 26.2467 7.62374 27.3244 7.43071 28.897C7.03948 28.6369 6.66116 28.3587 6.29626 28.0655C6.46451 27.7745 6.7231 27.4163 7.01677 27.2176C6.87948 27.0545 6.74735 26.8857 6.61987 26.7133C6.27458 26.9239 5.96645 27.3141 5.76929 27.6217C5.45393 27.3435 5.14942 27.0529 4.85729 26.7505C5.12826 26.4108 5.47819 25.8947 5.98968 25.7554C5.87148 25.5556 5.75897 25.3523 5.65264 25.1453C5.05858 25.3017 4.65239 25.8643 4.35097 26.1987C4.07897 25.888 3.81884 25.5675 3.57213 25.2361C4.02271 24.9409 4.39535 24.2008 5.20877 24.1698C5.2769 24.3391 5.34864 24.5074 5.424 24.6741C5.51174 24.8666 5.64387 24.9414 5.88851 24.9414C6.64413 24.9414 7.81471 24.4516 8.71432 23.5535C8.12903 22.4883 7.95148 21.9458 7.95148 21.3905C7.95148 19.9794 9.95406 18.7948 9.95406 17.4256C9.95406 16.0563 9.264 15.2733 9.264 13.7899C9.264 12.4532 9.86787 11.2991 10.6544 10.3257C10.4594 10.448 10.2895 10.5843 10.1239 10.7525C9.26761 11.6196 8.69987 12.8872 8.69987 14.0563C8.69987 15.6315 9.29135 16.2782 9.29135 17.4467C9.29135 18.5223 7.0111 20.0181 7.26916 21.487C6.47329 22.2116 5.52413 22.5352 4.69368 22.5352C4.76593 22.8408 4.85006 23.1412 4.94503 23.4374C4.0098 23.487 3.58193 24.2844 3.088 24.5481C2.84439 24.1812 2.61626 23.8044 2.40413 23.4173C3.23664 23.3306 3.48748 22.2601 4.65084 22.3417C4.58993 22.0594 4.53832 21.7729 4.49806 21.4839C3.15922 21.3941 2.85574 22.5234 1.97574 22.5714C1.7889 22.1724 1.61755 21.7652 1.46426 21.3486L4.39226 20.2317L4.38606 19.8699C4.38606 19.6511 4.39277 19.4343 4.40464 19.2196C2.89703 19.1845 2.43819 20.4785 1.13548 20.3505C1.01574 19.9391 0.910966 19.5221 0.824773 19.0983C2.47122 19.3022 3.06839 17.9179 4.54968 17.919C4.61677 17.5226 4.704 17.1345 4.81084 16.7535C3.01522 16.6756 2.38864 18.2374 0.636385 17.9468C0.59045 17.584 0.557934 17.217 0.538321 16.847C2.57548 17.0746 3.33935 15.3997 5.19432 15.6046C5.36929 15.1613 5.57264 14.7324 5.80181 14.3195C3.47613 13.9107 2.68645 15.8555 0.521805 15.5566C0.755611 7.21033 7.59587 0.515099 16 0.515099C24.4041 0.515099 31.2444 7.21033 31.4782 15.5587C29.313 15.8576 28.5234 13.9133 26.1982 14.3215C26.4268 14.7345 26.6302 15.1634 26.8057 15.6067C28.6596 15.4013 29.4235 17.0766 31.4612 16.849ZM9.344 10.3546C8.20387 9.88852 6.82374 9.99587 5.6449 10.753C5.46219 9.65626 4.86709 8.68181 4.01961 8.09394C3.90245 8.0129 3.78064 8.08981 3.79148 8.22555C3.97058 10.543 2.61574 12.5554 0.949676 14.3241C2.66684 14.8403 4.12851 12.6292 6.35561 13.4008C7.15458 12.2111 8.16929 11.1773 9.344 10.3546ZM16 8.95278C14.5626 8.95278 13.3584 9.76568 13.0431 10.816C13.0188 10.8965 13.0519 10.9486 13.1448 10.9068C13.4034 10.7907 13.6975 10.735 14.017 10.735C14.6034 10.735 15.12 10.9502 15.4255 11.3249C15.5608 11.7708 15.5721 12.4165 15.4194 12.785C15.1778 12.7308 15.0911 12.544 14.8552 12.544C14.6194 12.544 14.4366 12.7097 14.0366 12.7097C13.6372 12.7097 13.5902 12.5208 13.3275 12.5208C13.0183 12.5208 12.9615 12.8392 12.9615 13.1985C12.9615 14.8 14.4335 17.0039 15.9995 17.0039C17.5649 17.0039 19.0369 14.8 19.0369 13.1985C19.0369 12.8392 18.9631 12.5316 18.64 12.4898C18.479 12.6059 18.3308 12.7097 17.9623 12.7097C17.5623 12.7097 17.4519 12.544 17.2165 12.544C16.9321 12.544 16.9605 13.1437 16.623 13.1773C16.3979 12.6364 16.3871 11.9427 16.5739 11.3249C16.88 10.9502 17.3961 10.735 17.9824 10.735C18.3019 10.735 18.5982 10.7912 18.8542 10.9068C18.9476 10.9486 18.9801 10.896 18.9559 10.816C18.641 9.76568 17.4374 8.95278 16 8.95278ZM18.2885 11.2506C17.9437 11.2506 17.5396 11.3564 17.2857 11.6392C17.2594 11.7161 17.2594 11.8307 17.2965 11.9071C17.9215 11.6929 18.4728 11.6846 18.7391 11.9825C18.881 11.8534 18.9264 11.7373 18.9264 11.6026C18.9264 11.3946 18.7148 11.2506 18.2885 11.2506ZM13.2609 11.9825C13.5623 11.6805 14.1977 11.6934 14.8578 11.937C14.8867 11.6088 14.2988 11.2501 13.7115 11.2501C13.2846 11.2501 13.0735 11.3941 13.0735 11.6026C13.0735 11.7373 13.119 11.8539 13.2609 11.9825ZM23.1675 6.56103C22.0325 6.64207 21.0467 7.03174 20.2493 7.68103C20.5879 6.72103 21.0178 5.88129 21.5628 5.06736C20.1177 5.22065 18.9094 5.74916 18.0279 6.65239L17.3378 4.84336L18.8697 3.49058L16.8186 3.34555L16 1.43794L15.1809 3.34555L13.1298 3.49058L14.6617 4.84336L13.9721 6.65239C13.0901 5.74916 11.8818 5.22065 10.4377 5.06736C10.9817 5.88181 11.4116 6.72155 11.7502 7.68103C10.9533 7.03123 9.96748 6.64155 8.83251 6.56103C9.51329 7.43639 10.1166 8.36955 10.5636 9.3729C10.6142 9.48594 10.7226 9.5231 10.8397 9.46478C12.3943 8.69213 14.1461 8.25755 15.9995 8.25755C17.8529 8.25755 19.6041 8.69265 21.1597 9.46478C21.2769 9.5231 21.3853 9.48594 21.4354 9.3729C21.8828 8.36955 22.4862 7.43639 23.1675 6.56103ZM25.6454 13.4018C27.8715 12.6302 29.3337 14.8408 31.0508 14.3252C29.3848 12.5564 28.0304 10.544 28.2095 8.22658C28.2204 8.09084 28.0981 8.01342 27.9814 8.09497C27.1334 8.68284 26.5383 9.65729 26.3561 10.7541C25.1768 9.99691 23.7972 9.88903 22.657 10.3556C23.8302 11.1773 24.8454 12.2111 25.6454 13.4018Z" fill="#006341"/>
        <path d="M27.6619 29.4245H26.8743V31.5432H26.592V29.4245H25.8065V29.1613H27.6619V29.4245ZM27.9928 29.1613H28.4114L29.2217 31.0286H29.2274L30.0397 29.1613H30.4516V31.5432H30.1672V29.5463H30.161L29.3079 31.5432H29.136L28.2797 29.5463H28.2741V31.5432H27.9928V29.1613Z" fill="#006341"/>
    </g>
    <defs>
        <clipPath id="clip0_4_561">
            <rect width="32" height="32" fill="white"/>
        </clipPath>
    </defs>
</svg>
