<svg width="24" height="24" viewBox="0 0 24 24" fill="none" xmlns="http://www.w3.org/2000/svg">
<path d="M19.5469 14.2969L12.7969 21.0469C12.5846 21.2564 12.2983 21.3739 12 21.3739C11.7017 21.3739 11.4154 21.2564 11.2031 21.0469L4.45312 14.2969C4.24178 14.0855 4.12305 13.7989 4.12305 13.5C4.12305 13.2011 4.24178 12.9145 4.45312 12.7031C4.66447 12.4918 4.95111 12.373 5.25 12.373C5.54888 12.373 5.83553 12.4918 6.04687 12.7031L10.875 17.5312V3.75C10.875 3.45163 10.9935 3.16548 11.2045 2.9545C11.4155 2.74353 11.7016 2.625 12 2.625C12.2984 2.625 12.5845 2.74353 12.7955 2.9545C13.0065 3.16548 13.125 3.45163 13.125 3.75V17.5312L17.9531 12.7031C18.1645 12.4918 18.4511 12.373 18.75 12.373C19.0489 12.373 19.3355 12.4918 19.5469 12.7031C19.7582 12.9145 19.8769 13.2011 19.8769 13.5C19.8769 13.7989 19.7582 14.0855 19.5469 14.2969Z" fill="#575555"/>
</svg>
