<svg
    width="24"
    height="24"
    fill="none"
    viewBox="0 0 24 24"
    xmlns="http://www.w3.org/2000/svg"
>
<path
    d="M21.3751 12C21.3751 12.2984 21.2565 12.5845 21.0456 12.7955C20.8346 13.0065 20.5484 13.125 20.2501 13.125H6.46883L11.297 17.9531C11.4018 18.0576 11.485 18.1818 11.5418 18.3186C11.5986 18.4553 11.6278 18.6019 11.6278 18.75C11.6278 18.8981 11.5986 19.0447 11.5418 19.1814C11.485 19.3182 11.4018 19.4424 11.297 19.5469C11.0847 19.7564 10.7984 19.8739 10.5001 19.8739C10.2018 19.8739 9.9155 19.7564 9.7032 19.5469L2.9532 12.7969C2.84832 12.6924 2.76511 12.5682 2.70832 12.4314C2.65154 12.2947 2.62231 12.1481 2.62231 12C2.62231 11.8519 2.65154 11.7053 2.70832 11.5686C2.76511 11.4318 2.84832 11.3076 2.9532 11.2031L9.7032 4.45312C9.91455 4.24178 10.2012 4.12305 10.5001 4.12305C10.6481 4.12305 10.7946 4.1522 10.9313 4.20883C11.0681 4.26547 11.1923 4.34848 11.297 4.45312C11.4016 4.55777 11.4846 4.682 11.5412 4.81873C11.5979 4.95546 11.627 5.10201 11.627 5.25C11.627 5.39799 11.5979 5.54454 11.5412 5.68126C11.4846 5.81799 11.4016 5.94223 11.297 6.04687L6.46883 10.875H20.2501C20.5484 10.875 20.8346 10.9935 21.0456 11.2045C21.2565 11.4155 21.3751 11.7016 21.3751 12Z"
    fill="#575555"
/>
</svg>
