<svg width="24" height="24" viewBox="0 0 24 24" fill="none" xmlns="http://www.w3.org/2000/svg">
<path d="M21.0469 12.7969L14.2969 19.5469C14.0846 19.7564 13.7983 19.8739 13.5 19.8739C13.2017 19.8739 12.9154 19.7564 12.7031 19.5469C12.5982 19.4424 12.515 19.3182 12.4582 19.1814C12.4015 19.0447 12.3722 18.8981 12.3722 18.75C12.3722 18.6019 12.4015 18.4553 12.4582 18.3186C12.515 18.1818 12.5982 18.0576 12.7031 17.9531L17.5312 13.125H3.75C3.45163 13.125 3.16548 13.0065 2.9545 12.7955C2.74353 12.5845 2.625 12.2984 2.625 12C2.625 11.7016 2.74353 11.4155 2.9545 11.2045C3.16548 10.9935 3.45163 10.875 3.75 10.875H17.5312L12.7031 6.04687C12.4918 5.83553 12.373 5.54888 12.373 5.25C12.373 5.10201 12.4022 4.95546 12.4588 4.81873C12.5155 4.682 12.5985 4.55777 12.7031 4.45312C12.8078 4.34848 12.932 4.26547 13.0687 4.20883C13.2055 4.1522 13.352 4.12305 13.5 4.12305C13.7989 4.12305 14.0855 4.24178 14.2969 4.45312L21.0469 11.2031C21.1518 11.3076 21.235 11.4318 21.2918 11.5686C21.3485 11.7053 21.3778 11.8519 21.3778 12C21.3778 12.1481 21.3485 12.2947 21.2918 12.4314C21.235 12.5682 21.1518 12.6924 21.0469 12.7969Z" fill="#575555"/>
</svg>
