<svg width="24" height="24" viewBox="0 0 24 24" fill="none" xmlns="http://www.w3.org/2000/svg">
<path d="M19.5469 11.2967C19.3346 11.5063 19.0483 11.6237 18.75 11.6237C18.4517 11.6237 18.1654 11.5063 17.9531 11.2967L13.125 6.46858V20.2498C13.125 20.5482 13.0065 20.8343 12.7955 21.0453C12.5845 21.2563 12.2984 21.3748 12 21.3748C11.7016 21.3748 11.4155 21.2563 11.2045 21.0453C10.9935 20.8343 10.875 20.5482 10.875 20.2498V6.46858L6.04687 11.2967C5.83553 11.5081 5.54888 11.6268 5.25 11.6268C4.95111 11.6268 4.66447 11.5081 4.45312 11.2967C4.24178 11.0854 4.12305 10.7987 4.12305 10.4998C4.12305 10.2009 4.24178 9.9143 4.45312 9.70296L11.2031 2.95296C11.3076 2.84808 11.4318 2.76486 11.5686 2.70808C11.7053 2.6513 11.8519 2.62207 12 2.62207C12.1481 2.62207 12.2947 2.6513 12.4314 2.70808C12.5682 2.76486 12.6924 2.84808 12.7969 2.95296L19.5469 9.70296C19.6518 9.80747 19.735 9.93167 19.7918 10.0684C19.8485 10.2052 19.8778 10.3518 19.8778 10.4998C19.8778 10.6479 19.8485 10.7945 19.7918 10.9313C19.735 11.068 19.6518 11.1922 19.5469 11.2967Z" fill="#575555"/>
</svg>
