<svg width="24" height="24" viewBox="0 0 24 24" fill="none" xmlns="http://www.w3.org/2000/svg">
    <path
            opacity="0.2"
            d="M5.26868 9.75016C5.26618 8.86067 5.44001 7.9795 5.7801 7.15758C6.1202 6.33567 6.61982 5.58931 7.2501 4.96165C7.88038 4.33399 8.62881 3.83747 9.45213 3.5008C10.2754 3.16412 11.1573 2.99397 12.0468 3.00016C15.7593 3.02829 18.7312 6.11266 18.7312 9.83454V10.5002C18.7312 13.8564 19.4343 15.8064 20.0531 16.8658C20.1211 16.9798 20.1577 17.1099 20.159 17.2427C20.1603 17.3755 20.1264 17.5063 20.0606 17.6217C19.9948 17.7371 19.8995 17.8329 19.7845 17.8994C19.6696 17.9659 19.539 18.0007 19.4062 18.0002H4.59368C4.46087 18.0007 4.3303 17.9659 4.21532 17.8994C4.10035 17.8329 4.0051 17.7371 3.93931 17.6217C3.87351 17.5063 3.83954 17.3755 3.84086 17.2427C3.84218 17.1099 3.87874 16.9798 3.94681 16.8658C4.56556 15.8064 5.26868 13.8564 5.26868 10.5002V9.75016Z"
            fill="#575555"
    />
    <path
        d="M20.6999 16.4906C20.1468 15.5344 19.4812 13.7156 19.4812 10.5V9.83438C19.4812 5.68125 16.1531 2.27813 12.0562 2.25H11.9999C11.0162 2.25123 10.0424 2.4462 9.1341 2.82378C8.22577 3.20135 7.4007 3.75414 6.706 4.45058C6.0113 5.14702 5.46058 5.97347 5.08528 6.88275C4.70997 7.79202 4.51744 8.76632 4.51868 9.75V10.5C4.51868 13.7156 3.85305 15.5344 3.29993 16.4906C3.16615 16.7185 3.09495 16.9777 3.09353 17.2419C3.0921 17.5061 3.1605 17.7661 3.29181 17.9954C3.42311 18.2247 3.61266 18.4152 3.84127 18.5477C4.06988 18.6803 4.32944 18.75 4.59368 18.75H8.24993C8.24993 19.7446 8.64501 20.6984 9.34828 21.4016C10.0515 22.1049 11.0054 22.5 11.9999 22.5C12.9945 22.5 13.9483 22.1049 14.6516 21.4016C15.3548 20.6984 15.7499 19.7446 15.7499 18.75H19.4062C19.6704 18.7517 19.9303 18.6831 20.1592 18.5513C20.3882 18.4196 20.578 18.2293 20.7093 18C20.8394 17.7694 20.907 17.5088 20.9054 17.2441C20.9038 16.9793 20.8329 16.7196 20.6999 16.4906ZM11.9999 21C11.4039 20.9975 10.8331 20.7597 10.4117 20.3383C9.99024 19.9168 9.75239 19.346 9.74993 18.75H14.2499C14.2475 19.346 14.0096 19.9168 13.5882 20.3383C13.1668 20.7597 12.5959 20.9975 11.9999 21ZM4.59368 17.25C5.24055 16.125 6.01868 14.0531 6.01868 10.5V9.75C6.01621 8.96295 6.1691 8.18316 6.46858 7.45532C6.76806 6.72747 7.20824 6.06589 7.7639 5.50849C8.31956 4.95109 8.97976 4.50884 9.70666 4.20708C10.4336 3.90533 11.2129 3.75 11.9999 3.75H12.0468C15.3187 3.76875 17.9812 6.50625 17.9812 9.83438V10.5C17.9812 14.0531 18.7593 16.125 19.4062 17.25H4.59368Z"
        fill="#575555"
    />
</svg>
