<svg width="24" height="24" viewBox="0 0 24 24" fill="none" xmlns="http://www.w3.org/2000/svg">
<path d="M15.0001 20.625C14.7018 20.6237 14.4159 20.506 14.2032 20.2969L6.7032 12.7969C6.59832 12.6924 6.51511 12.5682 6.45832 12.4314C6.40154 12.2947 6.37231 12.1481 6.37231 12C6.37231 11.8519 6.40154 11.7053 6.45832 11.5686C6.51511 11.4318 6.59832 11.3076 6.7032 11.2031L14.2032 3.70312C14.4145 3.49178 14.7012 3.37305 15.0001 3.37305C15.1481 3.37305 15.2946 3.4022 15.4313 3.45883C15.5681 3.51547 15.6923 3.59848 15.797 3.70312C15.9016 3.80777 15.9846 3.932 16.0412 4.06873C16.0979 4.20546 16.127 4.35201 16.127 4.5C16.127 4.64799 16.0979 4.79454 16.0412 4.93126C15.9846 5.06799 15.9016 5.19223 15.797 5.29687L9.09383 12L15.797 18.7031C15.9018 18.8076 15.985 18.9318 16.0418 19.0686C16.0986 19.2053 16.1278 19.3519 16.1278 19.5C16.1278 19.6481 16.0986 19.7947 16.0418 19.9314C15.985 20.0682 15.9018 20.1924 15.797 20.2969C15.5843 20.506 15.2983 20.6237 15.0001 20.625Z" fill="#575555"/>
</svg>
