<svg width="24" height="24" viewBox="0 0 24 24" fill="none" xmlns="http://www.w3.org/2000/svg">
<path d="M9.00008 20.625C8.70183 20.6237 8.41589 20.506 8.2032 20.2969C8.09832 20.1924 8.01511 20.0682 7.95832 19.9314C7.90154 19.7947 7.87231 19.6481 7.87231 19.5C7.87231 19.3519 7.90154 19.2053 7.95832 19.0686C8.01511 18.9318 8.09832 18.8076 8.2032 18.7031L14.9063 12L8.2032 5.29687C7.99186 5.08553 7.87313 4.79888 7.87313 4.5C7.87313 4.35201 7.90228 4.20546 7.95891 4.06873C8.01554 3.932 8.09855 3.80777 8.2032 3.70312C8.30785 3.59848 8.43208 3.51547 8.56881 3.45883C8.70554 3.4022 8.85208 3.37305 9.00008 3.37305C9.29896 3.37305 9.58561 3.49178 9.79695 3.70312L17.297 11.2031C17.4018 11.3076 17.485 11.4318 17.5418 11.5686C17.5986 11.7053 17.6278 11.8519 17.6278 12C17.6278 12.1481 17.5986 12.2947 17.5418 12.4314C17.485 12.5682 17.4018 12.6924 17.297 12.7969L9.79695 20.2969C9.58427 20.506 9.29832 20.6237 9.00008 20.625Z" fill="#575555"/>
</svg>
