<svg width="24" height="24" viewBox="0 0 24 24" fill="none" xmlns="http://www.w3.org/2000/svg">
<path d="M12 17.625C11.7018 17.6237 11.4158 17.506 11.2031 17.2969L3.70312 9.79687C3.49178 9.58553 3.37305 9.29888 3.37305 9C3.37305 8.70111 3.49178 8.41447 3.70312 8.20312C3.91447 7.99178 4.20111 7.87305 4.5 7.87305C4.79888 7.87305 5.08553 7.99178 5.29687 8.20312L12 14.9062L18.7031 8.20312C18.9145 7.99178 19.2011 7.87305 19.5 7.87305C19.7989 7.87305 20.0855 7.99178 20.2969 8.20312C20.5082 8.41447 20.6269 8.70111 20.6269 9C20.6269 9.29888 20.5082 9.58553 20.2969 9.79687L12.7969 17.2969C12.5842 17.506 12.2982 17.6237 12 17.625Z" fill="#575555"/>
</svg>
