<svg width="24" height="24" viewBox="0 0 24 24" fill="none" xmlns="http://www.w3.org/2000/svg">
<path d="M19.5 16.1248C19.2018 16.1235 18.9158 16.0058 18.7031 15.7967L12 9.09358L5.29687 15.7967C5.08553 16.0081 4.79888 16.1268 4.5 16.1268C4.20111 16.1268 3.91447 16.0081 3.70312 15.7967C3.49178 15.5854 3.37305 15.2987 3.37305 14.9998C3.37305 14.7009 3.49178 14.4143 3.70312 14.203L11.2031 6.70296C11.3076 6.59808 11.4318 6.51486 11.5686 6.45808C11.7053 6.4013 11.8519 6.37207 12 6.37207C12.1481 6.37207 12.2947 6.4013 12.4314 6.45808C12.5682 6.51486 12.6924 6.59808 12.7969 6.70296L20.2969 14.203C20.4018 14.3075 20.485 14.4317 20.5418 14.5684C20.5985 14.7052 20.6278 14.8518 20.6278 14.9998C20.6278 15.1479 20.5985 15.2945 20.5418 15.4313C20.485 15.568 20.4018 15.6922 20.2969 15.7967C20.0842 16.0058 19.7982 16.1235 19.5 16.1248Z" fill="#575555"/>
</svg>
