<svg width="24" height="24" viewBox="0 0 24 24" fill="none" xmlns="http://www.w3.org/2000/svg">
    <path d="M20.4 8.3999H6V9.5999H20.4V8.3999Z" fill="black"/>
    <path fill-rule="evenodd" clip-rule="evenodd" d="M6 19.2001C6 20.5201 7.08 21.6 8.4 21.6C9.72 21.6 10.8 20.5201 10.8 19.2001C10.8 17.8801 9.72 16.8 8.4 16.8C7.08 16.8 6 17.8801 6 19.2001ZM7.20004 19.2001C7.20004 18.4801 7.68004 18 8.40004 18C9.12004 18 9.60004 18.4801 9.60004 19.2001C9.60004 19.9201 9.12004 20.4 8.40004 20.4C7.68004 20.4 7.20004 19.9201 7.20004 19.2001Z" fill="black"/>
    <path fill-rule="evenodd" clip-rule="evenodd" d="M15.6 19.2001C15.6 20.5201 16.68 21.6 18 21.6C19.32 21.6 20.4 20.5201 20.4 19.2001C20.4 17.8801 19.32 16.8 18 16.8C16.68 16.8 15.6 17.8801 15.6 19.2001ZM16.8001 19.2001C16.8001 18.4801 17.2801 18 18.0001 18C18.7201 18 19.2001 18.4801 19.2001 19.2001C19.2001 19.9201 18.7201 20.4 18.0001 20.4C17.2801 20.4 16.8001 19.9201 16.8001 19.2001Z" fill="black"/>
    <path d="M19.08 15.6001H7.32001L4.08001 4.8001H1.20001V3.6001H5.04001L8.28001 14.4001H18.12L20.4 7.0801L21.6 7.3201L19.08 15.6001Z" fill="black"/>
</svg>
