<svg width="24" height="24" viewBox="0 0 24 24" fill="none" xmlns="http://www.w3.org/2000/svg">
<path d="M9.75 18.375C9.45175 18.3737 9.16581 18.256 8.95312 18.0469L3.70312 12.7969C3.49178 12.5855 3.37305 12.2989 3.37305 12C3.37305 11.7011 3.49178 11.4145 3.70312 11.2031C3.91447 10.9918 4.20111 10.873 4.5 10.873C4.79888 10.873 5.08553 10.9918 5.29687 11.2031L9.75 15.6562L19.4531 5.95312C19.5578 5.84848 19.682 5.76547 19.8187 5.70883C19.9555 5.6522 20.102 5.62305 20.25 5.62305C20.398 5.62305 20.5445 5.6522 20.6813 5.70883C20.818 5.76547 20.9422 5.84848 21.0469 5.95312C21.1515 6.05777 21.2345 6.182 21.2912 6.31873C21.3478 6.45546 21.377 6.60201 21.377 6.75C21.377 6.89799 21.3478 7.04454 21.2912 7.18126C21.2345 7.31799 21.1515 7.44223 21.0469 7.54687L10.5469 18.0469C10.3342 18.256 10.0482 18.3737 9.75 18.375Z" fill="#575555"/>
</svg>
