<svg
        width="24"
        height="24"
        viewBox="0 0 24 24"
        fill="none"
        xmlns="http://www.w3.org/2000/svg"
>
    <path
            d="M19.547 17.9531C19.6518 18.0576 19.735 18.1818 19.7918 18.3186C19.8486 18.4553 19.8778 18.6019 19.8778 18.75C19.8778 18.8981 19.8486 19.0447 19.7918 19.1814C19.735 19.3182 19.6518 19.4424 19.547 19.5469C19.3347 19.7564 19.0484 19.8739 18.7501 19.8739C18.4518 19.8739 18.1655 19.7564 17.9532 19.5469L12.0001 13.5937L6.04695 19.5469C5.83466 19.7564 5.54837 19.8739 5.25008 19.8739C4.95179 19.8739 4.6655 19.7564 4.4532 19.5469C4.34832 19.4424 4.26511 19.3182 4.20832 19.1814C4.15154 19.0447 4.12231 18.8981 4.12231 18.75C4.12231 18.6019 4.15154 18.4553 4.20832 18.3186C4.26511 18.1818 4.34832 18.0576 4.4532 17.9531L10.4063 12L4.4532 6.04687C4.24186 5.83553 4.12313 5.54888 4.12313 5.25C4.12313 5.10201 4.15227 4.95546 4.20891 4.81873C4.26554 4.682 4.34855 4.55777 4.4532 4.45312C4.55785 4.34848 4.68208 4.26547 4.81881 4.20883C4.95554 4.1522 5.10208 4.12305 5.25008 4.12305C5.54896 4.12305 5.83561 4.24178 6.04695 4.45312L12.0001 10.4062L17.9532 4.45312C18.1645 4.24178 18.4512 4.12305 18.7501 4.12305C19.049 4.12305 19.3356 4.24178 19.547 4.45312C19.7583 4.66447 19.877 4.95111 19.877 5.25C19.877 5.54888 19.7583 5.83553 19.547 6.04687L13.5938 12L19.547 17.9531Z"
            fill="#575555"
    />
</svg>
