<?xml version="1.0" ?>
<!-- Uploaded to: SVG Repo, www.svgrepo.com, Generator: SVG Repo Mixer Tools -->
<svg width="800px" height="800px" viewBox="0 0 20 20" version="1.1" xmlns="http://www.w3.org/2000/svg">
<g id="layer1">
<path d="M 1.5 4 C 0.671573 4 0 4.671573 0 5.5 L 0 15.5 C 0 16.328427 0.671573 17 1.5 17 L 18.5 17 C 19.328427 17 20 16.328427 20 15.5 L 20 5.5 C 20 4.671573 19.328427 4 18.5 4 L 1.5 4 z M 1.4648438 5 C 1.4765638 4.999588 1.48828 4.999588 1.5 5 L 18.5 5 C 18.776142 5 19 5.223858 19 5.5 L 19 6 L 1 6 L 1 5.5 C 0.999349 5.237024 1.2025178 5.01849 1.4648438 5 z M 1 7 L 19 7 L 19 8.9960938 L 1 8.9960938 L 1 7 z M 1 10 L 19 10 L 19 15.5 C 19 15.776142 18.776142 16 18.5 16 L 1.5 16 C 1.223858 16 1 15.776142 1 15.5 L 1 10 z M 2 11 L 2 12 L 13 12 L 13 11 L 2 11 z " style="fill:#222222; fill-opacity:1; stroke:none; stroke-width:0px;"/>
</g>
</svg>