<?xml version="1.0" encoding="iso-8859-1"?>
<!-- Uploaded to: SVG Repo, www.svgrepo.com, Generator: SVG Repo Mixer Tools -->
<svg fill="#000000" height="24px" width="24px" version="1.1" id="Layer_1" xmlns="http://www.w3.org/2000/svg" xmlns:xlink="http://www.w3.org/1999/xlink"
	 viewBox="0 0 512 512" xml:space="preserve">
<g>
	<g>
		<path d="M395.583,139.041h-54.69c-4.656,0-8.429,3.774-8.429,8.429v93.881c0,4.655,3.773,8.429,8.429,8.429h107.49
			c4.656,0,8.429-3.774,8.429-8.429v-41.095C456.812,166.503,429.344,139.041,395.583,139.041z M349.322,232.923V155.9h46.261
			c24.467,0,44.37,19.899,44.37,44.357v32.666H349.322z"/>
	</g>
</g>
<g>
	<g>
		<path d="M122.503,349.479c-16.375,0-29.698,13.323-29.698,29.698s13.323,29.698,29.698,29.698s29.698-13.323,29.698-29.698
			S138.878,349.479,122.503,349.479z M122.503,392.016c-7.079,0-12.839-5.76-12.839-12.839c0-7.079,5.76-12.839,12.839-12.839
			s12.839,5.76,12.839,12.839C135.343,386.257,129.583,392.016,122.503,392.016z"/>
	</g>
</g>
<g>
	<g>
		<path d="M390.496,349.479c-16.375,0-29.699,13.323-29.699,29.698s13.323,29.698,29.699,29.698s29.698-13.323,29.698-29.698
			S406.871,349.479,390.496,349.479z M390.496,392.016c-7.081,0-12.84-5.76-12.84-12.839c0-7.079,5.76-12.839,12.84-12.839
			c7.079,0,12.839,5.76,12.839,12.839C403.335,386.257,397.575,392.016,390.496,392.016z"/>
	</g>
</g>
<g>
	<g>
		<path d="M448.383,280.196c-4.656,0-8.429,3.774-8.429,8.429v25.301c0,4.655,3.773,8.429,8.429,8.429s8.429-3.774,8.429-8.429
			v-25.301C456.812,283.97,453.038,280.196,448.383,280.196z"/>
	</g>
</g>
<g>
	<g>
		<path d="M503.571,346.908h-6.81v-146.65c0-55.782-45.388-101.165-101.179-101.165h-86.211V79.557c0-4.655-3.773-8.429-8.429-8.429
			H29.288c-4.655,0-8.429,3.774-8.429,8.429v34.011c0,4.655,3.774,8.429,8.429,8.429c4.655,0,8.429-3.774,8.429-8.429V87.986
			h254.797v186.992h-18.527c-4.656,0-8.429,3.774-8.429,8.429s3.773,8.429,8.429,8.429h18.527v78.911H183.607
			c-4.125-30.043-29.946-53.266-61.105-53.266s-56.979,23.223-61.104,53.266H37.717v-6.982h8.429c4.655,0,8.429-3.774,8.429-8.429
			s-3.774-8.429-8.429-8.429h-8.429v-55.071h208.172c4.655,0,8.429-3.774,8.429-8.429s-3.774-8.429-8.429-8.429H37.717V141.666
			c0-4.655-3.774-8.429-8.429-8.429c-4.655,0-8.429,3.774-8.429,8.429v205.242H8.429c-4.655,0-8.429,3.774-8.429,8.429
			c0,4.655,3.774,8.429,8.429,8.429h12.429v15.411c0,4.655,3.774,8.429,8.429,8.429h32.111
			c4.125,30.043,29.946,53.266,61.105,53.266c31.159,0,56.979-23.223,61.105-53.266h145.783
			c4.125,30.043,29.947,53.266,61.105,53.266c31.158,0,56.979-23.223,61.104-53.266h36.732c4.656,0,8.429-3.774,8.429-8.429v-15.411
			h6.81c4.656,0,8.429-3.774,8.429-8.429C512,350.682,508.227,346.908,503.571,346.908z M122.503,424.014
			c-24.723,0-44.837-20.113-44.837-44.837c0-24.723,20.113-44.837,44.837-44.837c24.723,0,44.837,20.113,44.837,44.837
			C167.34,403.9,147.226,424.014,122.503,424.014z M390.496,424.014c-24.719,0-44.829-20.106-44.837-44.822
			c0-0.005,0.001-0.01,0.001-0.015c0-0.004-0.001-0.01-0.001-0.015c0.008-24.717,20.119-44.822,44.837-44.822
			c24.722,0,44.837,20.113,44.837,44.837C435.332,403.9,415.218,424.014,390.496,424.014z M479.903,370.748h-28.304
			c-4.125-30.043-29.946-53.266-61.104-53.266c-31.158,0-56.98,23.223-61.105,53.266h-20.019V115.951h86.211
			c46.494,0,84.32,37.82,84.32,84.307v146.65h-14.049c-4.656,0-8.429,3.774-8.429,8.429c0,4.655,3.773,8.429,8.429,8.429h14.05
			V370.748z"/>
	</g>
</g>
</svg>