<svg xmlns="http://www.w3.org/2000/svg" width="122" height="122" viewBox="0 0 122 122">
  <defs>
    <style>
      .cls-1 {
        fill: none;
      }

      .cls-2 {
        fill: #575555;
      }
    </style>
  </defs>
  <g id="편집" transform="translate(-156 -2071)">
    <rect id="사각형_3152" data-name="사각형 3152" class="cls-1" width="122" height="122" transform="translate(156 2071)"/>
    <path id="편집-2" data-name="편집" class="cls-2" d="M-112.789,100.169-74.134,61.5a11.59,11.59,0,0,0,0-16.363l-5.245-5.258a11.607,11.607,0,0,0-16.371,0l-39.262,39.266-.688,1.033-1.139,2.528h0l-7.442,22.4a3.874,3.874,0,0,0,2.393,4.938,3.829,3.829,0,0,0,1.34.217h0a4.033,4.033,0,0,0,1.188-.217l23.706-7.9M-84.878,45.4l5.221,5.217a3.8,3.8,0,0,1,.221,5.106l-.877.889L-90.882,46.041l.652-.652A3.8,3.8,0,0,1-84.878,45.4Zm-38.848,51.211-10.757,3.561,3.594-10.745Zm-3.344-14.375,30.66-30.664,10.581,10.573L-116.5,92.806Z" transform="translate(324.498 2058.5)"/>
  </g>
</svg>
