<svg width="24" height="24" viewBox="0 0 24 24" fill="none" xmlns="http://www.w3.org/2000/svg">
<path opacity="0.2" d="M19.8562 12.4785C19.8843 12.1598 19.8562 11.5223 19.8562 11.5223L21.4124 9.45039C21.1946 8.64357 20.8732 7.86836 20.4562 7.14414L17.8968 6.77852C17.678 6.54727 17.453 6.32227 17.2218 6.10352L16.8562 3.54414C16.1324 3.12617 15.3571 2.80469 14.5499 2.58789L12.478 4.14414C12.1599 4.11601 11.8399 4.11601 11.5218 4.14414L9.4499 2.58789C8.64308 2.8057 7.86788 3.12712 7.14365 3.54414L6.77803 6.10352C6.54678 6.32227 6.32178 6.54727 6.10303 6.77852L3.54365 7.14414C3.12568 7.86789 2.8042 8.64322 2.5874 9.45039L4.14365 11.5223C4.11553 11.841 4.14365 12.4785 4.14365 12.4785L2.5874 14.5504C2.80521 15.3572 3.12664 16.1324 3.54365 16.8566L6.10303 17.2223C6.32178 17.4598 6.54678 17.6848 6.77803 17.8973L7.14365 20.4566C7.8674 20.8746 8.64274 21.1961 9.4499 21.4129L11.5218 19.8566C11.8399 19.8848 12.1599 19.8848 12.478 19.8566L14.5499 21.4129C15.3567 21.1951 16.1319 20.8737 16.8562 20.4566L17.2218 17.8973C17.4562 17.6816 17.8968 17.2223 17.8968 17.2223L20.4562 16.8566C20.8741 16.1329 21.1956 15.3576 21.4124 14.5504L19.8562 12.4785ZM11.9999 16.5004C11.1099 16.5004 10.2399 16.2365 9.49984 15.742C8.75982 15.2475 8.18304 14.5447 7.84244 13.7225C7.50185 12.9002 7.41274 11.9954 7.58637 11.1225C7.76 10.2496 8.18859 9.44775 8.81792 8.81841C9.44726 8.18907 10.2491 7.76049 11.122 7.58686C11.9949 7.41322 12.8997 7.50234 13.722 7.84293C14.5442 8.18353 15.247 8.7603 15.7415 9.50032C16.236 10.2403 16.4999 11.1104 16.4999 12.0004C16.4999 13.1939 16.0258 14.3385 15.1819 15.1824C14.338 16.0263 13.1934 16.5004 11.9999 16.5004Z" fill="#575555"/>
<path d="M11.9999 6.7499C10.9615 6.7499 9.94651 7.0578 9.08315 7.63468C8.2198 8.21156 7.54689 9.0315 7.14953 9.99081C6.75217 10.9501 6.6482 12.0057 6.85077 13.0241C7.05335 14.0425 7.55336 14.978 8.28759 15.7122C9.02181 16.4464 9.95727 16.9464 10.9757 17.149C11.9941 17.3516 13.0497 17.2476 14.009 16.8503C14.9683 16.4529 15.7882 15.78 16.3651 14.9166C16.942 14.0533 17.2499 13.0382 17.2499 11.9999C17.2499 10.6075 16.6968 9.27215 15.7122 8.28759C14.7276 7.30302 13.3923 6.7499 11.9999 6.7499ZM11.9999 15.7499C11.2582 15.7499 10.5332 15.53 9.91651 15.1179C9.29982 14.7059 8.81918 14.1202 8.53535 13.435C8.25152 12.7497 8.17726 11.9957 8.32195 11.2683C8.46665 10.5409 8.8238 9.87269 9.34825 9.34825C9.87269 8.8238 10.5409 8.46665 11.2683 8.32195C11.9957 8.17726 12.7497 8.25152 13.435 8.53535C14.1202 8.81918 14.7059 9.29982 15.1179 9.91651C15.53 10.5332 15.7499 11.2582 15.7499 11.9999C15.7499 12.9945 15.3548 13.9483 14.6515 14.6515C13.9483 15.3548 12.9945 15.7499 11.9999 15.7499ZM22.0124 14.0999L20.6155 12.2436C20.6249 12.0749 20.6155 11.8968 20.6155 11.7655L22.0124 9.8999C22.0819 9.8091 22.1291 9.70329 22.1502 9.59095C22.1714 9.47861 22.1659 9.36287 22.1343 9.25302C21.898 8.3887 21.5547 7.55727 21.1124 6.77802C21.0553 6.67904 20.9769 6.59402 20.8829 6.52915C20.7888 6.46428 20.6815 6.42119 20.5686 6.40302L18.2718 6.0749L17.9249 5.72802L17.5968 3.43115C17.5786 3.31834 17.5355 3.211 17.4706 3.11694C17.4058 3.02288 17.3208 2.94447 17.2218 2.8874C16.4425 2.44507 15.6111 2.10179 14.7468 1.86552C14.6369 1.83386 14.5212 1.82839 14.4088 1.84956C14.2965 1.87072 14.1907 1.91793 14.0999 1.9874L12.2436 3.3749H11.7561L9.8999 1.9874C9.8091 1.91793 9.70329 1.87072 9.59095 1.84956C9.47861 1.82839 9.36287 1.83386 9.25302 1.86552C8.3887 2.10179 7.55727 2.44507 6.77802 2.8874C6.67904 2.94447 6.59402 3.02288 6.52915 3.11694C6.46428 3.211 6.42119 3.31834 6.40302 3.43115L6.0749 5.72802L5.72802 6.0749L3.43115 6.40302C3.31834 6.42119 3.211 6.46428 3.11694 6.52915C3.02288 6.59402 2.94447 6.67904 2.8874 6.77802C2.44507 7.55727 2.10179 8.3887 1.86552 9.25302C1.83386 9.36287 1.82839 9.47861 1.84956 9.59095C1.87072 9.70329 1.91793 9.8091 1.9874 9.8999L3.38427 11.7561V12.2343L1.9874 14.0999C1.91793 14.1907 1.87072 14.2965 1.84956 14.4088C1.82839 14.5212 1.83386 14.6369 1.86552 14.7468C2.10179 15.6111 2.44507 16.4425 2.8874 17.2218C2.94447 17.3208 3.02288 17.4058 3.11694 17.4706C3.211 17.5355 3.31834 17.5786 3.43115 17.5968L5.72802 17.9249L6.0749 18.2718L6.40302 20.5686C6.42119 20.6815 6.46428 20.7888 6.52915 20.8829C6.59402 20.9769 6.67904 21.0553 6.77802 21.1124C7.55727 21.5547 8.3887 21.898 9.25302 22.1343C9.31701 22.1528 9.38328 22.1623 9.4499 22.1624C9.61251 22.1645 9.77108 22.1117 9.8999 22.0124L11.7561 20.6249H12.2436L14.0999 22.0124C14.1907 22.0819 14.2965 22.1291 14.4088 22.1502C14.5212 22.1714 14.6369 22.1659 14.7468 22.1343C15.6111 21.898 16.4425 21.5547 17.2218 21.1124C17.3208 21.0553 17.4058 20.9769 17.4706 20.8829C17.5355 20.7888 17.5786 20.6815 17.5968 20.5686L17.9249 18.2624C18.0374 18.1499 18.1686 18.028 18.2624 17.9249L20.5686 17.5968C20.6815 17.5786 20.7888 17.5355 20.8829 17.4706C20.9769 17.4058 21.0553 17.3208 21.1124 17.2218C21.5547 16.4425 21.898 15.6111 22.1343 14.7468C22.1659 14.6369 22.1714 14.5212 22.1502 14.4088C22.1291 14.2965 22.0819 14.1907 22.0124 14.0999ZM19.978 16.1624L17.7936 16.4718C17.625 16.4994 17.4702 16.5818 17.353 16.7061C17.2405 16.828 16.8936 17.1843 16.7249 17.3343C16.588 17.4519 16.4981 17.615 16.4718 17.7936L16.1624 19.978C15.6954 20.2273 15.2057 20.4313 14.6999 20.5874L12.928 19.2561C12.7854 19.1496 12.6084 19.0995 12.4311 19.1155H11.5686C11.3913 19.0995 11.2144 19.1496 11.0718 19.2561L9.2999 20.5874C8.79409 20.4313 8.30437 20.2273 7.8374 19.978L7.52802 17.7936C7.50169 17.615 7.41181 17.4519 7.2749 17.3343C7.05796 17.1454 6.85435 16.9418 6.66552 16.7249C6.54785 16.588 6.38475 16.4981 6.20615 16.4718L4.02177 16.1624C3.77644 15.6936 3.57254 15.2042 3.4124 14.6999L4.74365 12.928C4.84017 12.7907 4.8925 12.6271 4.89365 12.4593C4.88427 12.2905 4.8749 11.803 4.88427 11.5686C4.90027 11.3913 4.85018 11.2144 4.74365 11.0718L3.4124 9.2999C3.57254 8.79558 3.77644 8.30622 4.02177 7.8374L6.20615 7.52802C6.38475 7.50169 6.54785 7.41181 6.66552 7.2749C6.85435 7.05796 7.05796 6.85435 7.2749 6.66552C7.41181 6.54785 7.50169 6.38475 7.52802 6.20615L7.8374 4.02177C8.30622 3.77644 8.79558 3.57254 9.2999 3.4124L11.0718 4.74365C11.2144 4.85018 11.3913 4.90027 11.5686 4.88427C11.8499 4.8749 12.1499 4.8749 12.4311 4.88427C12.6084 4.90027 12.7854 4.85018 12.928 4.74365L14.6999 3.4124C15.2057 3.56846 15.6954 3.77251 16.1624 4.02177L16.4718 6.20615C16.4981 6.38475 16.588 6.54785 16.7249 6.66552C16.9418 6.85435 17.1454 7.05796 17.3343 7.2749C17.4519 7.41181 17.615 7.50169 17.7936 7.52802L19.978 7.8374C20.2273 8.30437 20.4313 8.79409 20.5874 9.2999L19.2561 11.0718C19.1596 11.2091 19.1073 11.3726 19.1061 11.5405C19.1155 11.7093 19.1249 12.1968 19.1155 12.4311C19.0995 12.6084 19.1496 12.7854 19.2561 12.928L20.5874 14.6999C20.4313 15.2057 20.2273 15.6954 19.978 16.1624Z" fill="#575555"/>
</svg>
