<svg width="24" height="24" viewBox="0 0 24 24" fill="none" xmlns="http://www.w3.org/2000/svg">
<path d="M21.7969 20.2031L17.9813 16.3875C19.2136 14.8148 19.8807 12.873 19.875 10.875C19.875 9.09497 19.3472 7.35491 18.3582 5.87487C17.3693 4.39483 15.9637 3.24128 14.3192 2.56009C12.6746 1.8789 10.865 1.70067 9.11919 2.04794C7.37336 2.3952 5.76972 3.25237 4.51104 4.51104C3.25237 5.76972 2.3952 7.37336 2.04794 9.11919C1.70067 10.865 1.8789 12.6746 2.56009 14.3192C3.24128 15.9637 4.39483 17.3693 5.87487 18.3582C7.35492 19.3472 9.09497 19.875 10.875 19.875C12.873 19.8806 14.8148 19.2136 16.3875 17.9813L20.2031 21.7969C20.4154 22.0064 20.7017 22.1239 21 22.1239C21.2983 22.1239 21.5846 22.0064 21.7969 21.7969C21.9018 21.6924 21.985 21.5682 22.0418 21.4314C22.0985 21.2947 22.1278 21.1481 22.1278 21C22.1278 20.8519 22.0985 20.7053 22.0418 20.5686C21.985 20.4318 21.9018 20.3076 21.7969 20.2031ZM4.125 10.875C4.125 9.53998 4.52088 8.23494 5.26258 7.1249C6.00428 6.01487 7.05849 5.14971 8.29189 4.63882C9.52529 4.12793 10.8825 3.99425 12.1919 4.2547C13.5012 4.51515 14.704 5.15803 15.648 6.10203C16.592 7.04604 17.2349 8.24877 17.4953 9.55814C17.7558 10.8675 17.6221 12.2247 17.1112 13.4581C16.6003 14.6915 15.7351 15.7457 14.6251 16.4874C13.5151 17.2291 12.21 17.625 10.875 17.625C9.08556 17.6225 7.37011 16.9106 6.10477 15.6452C4.83944 14.3799 4.12748 12.6645 4.125 10.875Z" fill="#575555"/>
</svg>
