<?xml version="1.0" encoding="iso-8859-1"?>
<!-- Uploaded to: SVG Repo, www.svgrepo.com, Generator: SVG Repo Mixer Tools -->
<svg fill="#575555" height="24px" width="24px" version="1.1" id="Capa_1" xmlns="http://www.w3.org/2000/svg" xmlns:xlink="http://www.w3.org/1999/xlink"
	 viewBox="0 0 611.998 611.998" xml:space="preserve">
<g>
	<g>
		<g>
			<path d="M586.355,182.317c-11.802-11.42-26.394-18.577-41.949-20.772V23.857c0-6.541-3.828-12.479-9.787-15.179
				c-5.959-2.703-12.944-1.665-17.865,2.646C414.567,100.896,227.792,122.439,202.741,124.96c-0.364-0.025-0.724-0.056-1.096-0.056
				l-90.516-0.015h-0.003c-0.258,0-0.515,0.006-0.771,0.017c-0.151-0.001-0.304-0.001-0.456-0.001l-0.489,0.003
				C48.051,125.945-1.025,180.521,0.016,246.563c0.493,31.404,12.161,60.895,32.854,83.042
				c21.034,22.508,48.937,34.903,78.572,34.903c0.546,0,23.391-0.013,23.391-0.013l55.369,190.359
				c0.142,0.489,0.304,0.965,0.489,1.432c5.823,17.345,17.904,31.592,34.111,40.193c10.408,5.523,21.788,8.33,33.272,8.329
				c6.779,0,13.598-0.979,20.269-2.953c17.973-5.318,32.888-17.266,41.999-33.643c8.927-16.048,11.312-34.593,6.748-52.334
				c-0.089-0.422-0.193-0.843-0.315-1.261l-39.778-136.765c69.632,14.518,166.001,43.54,229.755,99.424
				c3.1,2.717,7.023,4.132,10.989,4.132c2.33,0,4.673-0.487,6.876-1.486c5.96-2.701,9.787-8.639,9.787-15.18V326.553
				c38.631-5.366,68.256-41.135,67.582-83.81C611.627,219.761,602.285,197.736,586.355,182.317z M268.888,569.892
				c-19.572,5.794-40.564-5.315-46.779-24.767c-0.051-0.164-0.106-0.325-0.162-0.485l-52.398-180.145h31.398
				c3.426,0.296,22.026,2.019,49.35,6.514l44.226,152.059c0.046,0.194,0.094,0.386,0.146,0.578
				C300.03,543.354,288.466,564.099,268.888,569.892z M123.023,158.223l61.952,0.011v172.93h-61.952V158.223z M89.691,327.691
				c-31.954-10.411-55.741-43.064-56.348-81.651c-0.629-39.91,23.353-73.991,56.348-84.478V327.691z M511.071,430.582
				c-47.283-33.111-109.453-59.344-185.378-78.172c-46.914-11.633-86.64-17.234-107.385-19.637V156.784
				c20.835-2.518,60.494-8.304,107.277-20.074c75.999-19.126,138.201-45.528,185.487-78.681V430.582z M544.405,292.656v-97.158
				c6.871,1.833,13.318,5.497,18.767,10.769c9.619,9.312,15.266,22.799,15.488,37C579.038,267.197,564.279,287.495,544.405,292.656z
				"/>
		</g>
	</g>
</g>
</svg>