<svg xmlns="http://www.w3.org/2000/svg" width="122" height="122" viewBox="0 0 122 122">
  <defs>
    <style>
      .cls-1 {
        fill: none;
      }

      .cls-2 {
        fill: #E0E0E0;
      }
    </style>
  </defs>
  <g id="비밀번호_보이게" data-name="비밀번호 보이게" transform="translate(-1232 -394)">
    <rect id="사각형_3276" data-name="사각형 3276" class="cls-1" width="122" height="122" transform="translate(1232 394)"/>
    <g id="그룹_6646" data-name="그룹 6646" transform="translate(1251 428)">
      <path id="패스_2440" data-name="패스 2440" class="cls-2" d="M20.716,10.769a14.518,14.518,0,1,0,14.52,14.518A14.537,14.537,0,0,0,20.716,10.769Zm.011,24.069h-.011a9.558,9.558,0,1,1,.011,0Z" transform="translate(21.704 1.743)"/>
      <path id="패스_2441" data-name="패스 2441" class="cls-2" d="M82.742,32.841a81.459,81.459,0,0,0-12.1-12.7C62.188,12.963,51.848,7.27,40.8,7.27S19.417,12.952,10.963,20.143a81.293,81.293,0,0,0-12.1,12.7,2.5,2.5,0,0,0,0,2.925,81.451,81.451,0,0,0,12.1,12.7c8.458,7.18,18.8,12.873,29.842,12.873S62.2,55.656,70.646,48.465a81.786,81.786,0,0,0,12.1-12.7A2.5,2.5,0,0,0,82.742,32.841Zm-15.4,11.9c-6.255,5.292-15.94,11.6-26.541,11.6s-20.286-6.311-26.541-11.6A80.915,80.915,0,0,1,4.028,34.3,80.943,80.943,0,0,1,14.264,23.859c6.255-5.292,15.94-11.6,26.541-11.6s20.286,6.311,26.541,11.6A80.942,80.942,0,0,1,77.581,34.3,80.914,80.914,0,0,1,67.345,44.746Z" transform="translate(1.605 -7.27)"/>
    </g>
  </g>
</svg>
