<svg xmlns="http://www.w3.org/2000/svg" width="122" height="122" viewBox="0 0 122 122">
  <defs>
    <style>
      .cls-1 {
        fill: none;
      }

      .cls-2 {
        fill: #E0E0E0;
      }
    </style>
  </defs>
  <g id="비밀번호_안보이게" data-name="비밀번호 안보이게" transform="translate(-1366 -394)">
    <rect id="사각형_3277" data-name="사각형 3277" class="cls-1" width="122" height="122" transform="translate(1366 394)"/>
    <path id="패스_2442" data-name="패스 2442" class="cls-2" d="M109.742,35.621a81.459,81.459,0,0,0-12.1-12.7c-1.016-.862-2.064-1.7-3.133-2.514L105.189,12.4a2.681,2.681,0,0,0-3.219-4.288L89.853,17.2c-6.717-4.245-14.2-7.152-22.049-7.152-11.044,0-21.387,5.682-29.842,12.873a81.292,81.292,0,0,0-12.1,12.7,2.5,2.5,0,0,0,0,2.925,81.45,81.45,0,0,0,12.1,12.7c1.016.865,2.067,1.7,3.137,2.517L30.441,61.754a2.681,2.681,0,1,0,3.219,4.288l12.1-9.072c6.717,4.245,14.195,7.148,22.045,7.148,11.044,0,21.391-5.682,29.842-12.873a81.786,81.786,0,0,0,12.1-12.7A2.5,2.5,0,0,0,109.742,35.621Zm-68.478,11.9A80.915,80.915,0,0,1,31.028,37.083,80.944,80.944,0,0,1,41.264,26.638c6.255-5.292,15.94-11.6,26.541-11.6,6.455,0,12.56,2.353,17.768,5.378l-8,5.993A14.437,14.437,0,0,0,54.836,43.459l-9.567,7.177C43.832,49.592,42.465,48.544,41.264,47.525ZM77.379,37.08a9.566,9.566,0,0,1-9.553,9.551h-.011a9.509,9.509,0,0,1-5.7-1.927l14.62-10.967A9.533,9.533,0,0,1,77.379,37.08Zm-19.116,0a9.516,9.516,0,0,1,15.254-7.627L58.9,40.416A9.5,9.5,0,0,1,58.262,37.08ZM94.345,47.525c-6.255,5.292-15.94,11.6-26.541,11.6-6.452,0-12.553-2.349-17.761-5.371l8.008-6A14.436,14.436,0,0,0,80.79,30.7l9.556-7.166c1.434,1.037,2.8,2.088,4,3.1a80.943,80.943,0,0,1,10.236,10.445A80.914,80.914,0,0,1,94.345,47.525Z" transform="translate(1359.605 417.422)"/>
  </g>
</svg>
