<svg width="24" height="24" viewBox="0 0 24 24" fill="none" xmlns="http://www.w3.org/2000/svg">
<path d="M21.3496 11.9746C21.3496 12.273 21.2311 12.5591 21.0201 12.7701C20.8091 12.9811 20.523 13.0996 20.2246 13.0996H13.0996V20.2246C13.0996 20.523 12.9811 20.8091 12.7701 21.0201C12.5591 21.2311 12.273 21.3496 11.9746 21.3496C11.6762 21.3496 11.3901 21.2311 11.1791 21.0201C10.9681 20.8091 10.8496 20.523 10.8496 20.2246V13.0996H3.72461C3.42624 13.0996 3.14009 12.9811 2.92911 12.7701C2.71814 12.5591 2.59961 12.273 2.59961 11.9746C2.59961 11.6762 2.71814 11.3901 2.92911 11.1791C3.14009 10.9681 3.42624 10.8496 3.72461 10.8496H10.8496V3.72461C10.8496 3.42624 10.9681 3.14009 11.1791 2.92911C11.3901 2.71814 11.6762 2.59961 11.9746 2.59961C12.273 2.59961 12.5591 2.71814 12.7701 2.92911C12.9811 3.14009 13.0996 3.42624 13.0996 3.72461V10.8496H20.2246C20.523 10.8496 20.8091 10.9681 21.0201 11.1791C21.2311 11.3901 21.3496 11.6762 21.3496 11.9746Z" fill="#BCBABA"/>
</svg>
