<svg xmlns="http://www.w3.org/2000/svg" width="15.243" height="15.246" viewBox="0 0 15.243 15.246">
  <g id="채팅_구성원" data-name="채팅 구성원" transform="translate(0 0)">
    <path id="Path_2170" data-name="Path 2170" d="M-136.681,152.231h-7.334a.6.6,0,0,1-.476-.227.623.623,0,0,1-.126-.521,6.579,6.579,0,0,1,6.259-5.209h.318a6.49,6.49,0,0,1,2.651.629.6.6,0,0,0,.794-.283.6.6,0,0,0-.283-.793,7.829,7.829,0,0,0-.9-.36,4.049,4.049,0,0,0,.819-5.667,4.049,4.049,0,0,0-5.667-.818,4.048,4.048,0,0,0-.818,5.666,4.056,4.056,0,0,0,.818.819,7.745,7.745,0,0,0-5.16,5.773,1.809,1.809,0,0,0,1.4,2.143,1.784,1.784,0,0,0,.371.039h7.333a.6.6,0,0,0,.6-.6A.6.6,0,0,0-136.681,152.231Zm-4.376-10a2.858,2.858,0,0,1,2.858-2.858,2.858,2.858,0,0,1,2.858,2.858,2.859,2.859,0,0,1-2.714,2.855h-.3A2.863,2.863,0,0,1-141.058,142.228Z" transform="translate(145.822 -138.176)" fill="#606060"/>
    <path id="Path_2171" data-name="Path 2171" d="M-132.839,151.317a.6.6,0,0,0,.6.6h4.466a.6.6,0,0,0,.6-.6.6.6,0,0,0-.6-.6h-4.466A.6.6,0,0,0-132.839,151.317Z" transform="translate(142.426 -141.458)" fill="#606060"/>
    <path id="Path_2172" data-name="Path 2172" d="M-127.778,153.067h-4.466a.6.6,0,0,0-.6.6.6.6,0,0,0,.6.6h4.466a.6.6,0,0,0,.6-.6A.6.6,0,0,0-127.778,153.067Z" transform="translate(142.426 -142.072)" fill="#606060"/>
    <path id="Path_2173" data-name="Path 2173" d="M-127.778,155.412h-4.466a.6.6,0,0,0-.6.6.6.6,0,0,0,.6.6h4.466a.6.6,0,0,0,.6-.6A.6.6,0,0,0-127.778,155.412Z" transform="translate(142.426 -142.685)" fill="#606060"/>
  </g>
</svg>
