<svg
    width="24"
    height="24"
    viewBox="0 0 24 24"
    fill="none"
    xmlns="http://www.w3.org/2000/svg"
>
    <path
        d="M11.25 13.4996V9.74957C11.25 9.55066 11.329 9.3599 11.4697 9.21924C11.6103 9.07859 11.8011 8.99957 12 8.99957C12.1989 8.99957 12.3897 9.07859 12.5303 9.21924C12.671 9.3599 12.75 9.55066 12.75 9.74957V13.4996C12.75 13.6985 12.671 13.8893 12.5303 14.0299C12.3897 14.1706 12.1989 14.2496 12 14.2496C11.8011 14.2496 11.6103 14.1706 11.4697 14.0299C11.329 13.8893 11.25 13.6985 11.25 13.4996ZM22.2 19.8746C22.0031 20.2175 21.719 20.5022 21.3765 20.6998C21.034 20.8973 20.6454 21.0008 20.25 20.9996H3.74998C3.35458 21.0011 2.96583 20.8979 2.62321 20.7005C2.28058 20.5031 1.99629 20.2186 1.79919 19.8759C1.60209 19.5331 1.49921 19.1442 1.501 18.7488C1.50279 18.3534 1.60917 17.9656 1.80936 17.6246L10.05 3.37457C10.2473 3.03185 10.5314 2.74718 10.8737 2.54924C11.2161 2.35129 11.6045 2.24707 12 2.24707C12.3954 2.24707 12.7839 2.35129 13.1262 2.54924C13.4686 2.74718 13.7527 3.03185 13.95 3.37457L22.1906 17.6246C22.3923 17.9648 22.4995 18.3528 22.5012 18.7483C22.5028 19.1438 22.3988 19.5326 22.2 19.8746ZM20.8969 18.3746L12.6469 4.12457C12.5807 4.01179 12.4862 3.91827 12.3727 3.85329C12.2592 3.7883 12.1307 3.75412 12 3.75412C11.8692 3.75412 11.7407 3.7883 11.6273 3.85329C11.5138 3.91827 11.4193 4.01179 11.3531 4.12457L3.10311 18.3746C3.03539 18.4879 2.99963 18.6175 2.99963 18.7496C2.99963 18.8816 3.03539 19.0112 3.10311 19.1246C3.16798 19.2388 3.26207 19.3338 3.37575 19.3997C3.48943 19.4656 3.61859 19.5001 3.74998 19.4996H20.25C20.3814 19.5001 20.5105 19.4656 20.6242 19.3997C20.7379 19.3338 20.832 19.2388 20.8969 19.1246C20.9646 19.0112 21.0003 18.8816 21.0003 18.7496C21.0003 18.6175 20.9646 18.4879 20.8969 18.3746ZM12 15.7496C11.7775 15.7496 11.56 15.8156 11.375 15.9392C11.19 16.0628 11.0458 16.2385 10.9606 16.4441C10.8755 16.6496 10.8532 16.8758 10.8966 17.094C10.94 17.3123 11.0472 17.5127 11.2045 17.6701C11.3618 17.8274 11.5623 17.9345 11.7805 17.978C11.9987 18.0214 12.2249 17.9991 12.4305 17.9139C12.6361 17.8288 12.8118 17.6846 12.9354 17.4996C13.059 17.3146 13.125 17.0971 13.125 16.8746C13.125 16.5762 13.0065 16.2901 12.7955 16.0791C12.5845 15.8681 12.2984 15.7496 12 15.7496Z"
        fill="#575555"
    />
</svg>
